<svg xmlns="http://www.w3.org/2000/svg" width="338.773" height="298.682" viewBox="0 0 338.773 298.682"><defs><style>.a{opacity:0.05;}</style></defs><g class="a" transform="translate(-0.001 -0.199)"><path d="M282.785,64.482H55.99a5.672,5.672,0,0,0-5.672,5.672V228.912a5.671,5.671,0,0,0,5.672,5.668h226.8a5.668,5.668,0,0,0,5.668-5.668V70.154A5.672,5.672,0,0,0,282.785,64.482ZM67.006,223.24l45.681-63.954,25.007,34.954-16.919,29Zm66.9,0L203.4,104.089,272.912,223.24Zm143.2-147.418V207.934L208.307,90a5.9,5.9,0,0,0-9.8,0l-54.558,93.555-26.646-37.269a5.643,5.643,0,0,0-9.232-.046L61.662,211.213V75.822Z"/><path d="M338.213,209.979l-15.74-58.746V47.474a17.01,17.01,0,0,0-17.008-17.008H290.088l-4.723-17.715A17.042,17.042,0,0,0,264.535.779L153.675,30.466H33.31A17.01,17.01,0,0,0,16.3,47.474v19.8l-3.7.983A17.109,17.109,0,0,0,.562,89.087L16.3,147.833V251.592A17.01,17.01,0,0,0,33.31,268.6H48.686l4.724,17.71a16.982,16.982,0,0,0,20.814,11.981l.016,0L185.1,268.6H305.465a17.011,17.011,0,0,0,17.008-17.013V231.8l3.7-.988A17.1,17.1,0,0,0,338.213,209.979ZM267.475,11.756a5.668,5.668,0,0,1,6.929,3.966l3.934,14.744H197.509ZM11.52,86.171A5.733,5.733,0,0,1,15.544,79.2L16.3,79v25.015ZM71.3,287.338a5.673,5.673,0,0,1-6.929-3.966L60.425,268.6h80.84Zm239.837-35.746a5.667,5.667,0,0,1-5.668,5.668H33.31a5.667,5.667,0,0,1-5.668-5.668V47.474a5.667,5.667,0,0,1,5.668-5.668H305.465a5.667,5.667,0,0,1,5.668,5.668Zm12.094-31.752-.754.219V195.044l4.782,17.847A5.738,5.738,0,0,1,323.227,219.84Z"/><path d="M135.367,138.191a22.678,22.678,0,1,0-22.68-22.676A22.678,22.678,0,0,0,135.367,138.191Zm0-34.016a11.338,11.338,0,1,1-11.34,11.34A11.339,11.339,0,0,1,135.367,104.175Z"/></g></svg>