<svg xmlns="http://www.w3.org/2000/svg" width="73.714" height="96" viewBox="0 0 73.714 96"><defs><style>.a{fill:#e9e9e0;}.b{fill:#d9d7ca;}.c{fill:#cc4b4c;}.d{fill:#fff;}</style></defs><g transform="translate(-6.5)"><path class="a" d="M58.76,0H9.008C7.623,0,6.5,1.123,6.5,3.3V94.286C6.5,94.877,7.623,96,9.008,96h68.7c1.385,0,2.508-1.123,2.508-1.714V22.248c0-1.193-.159-1.577-.441-1.86L59.826.441A1.515,1.515,0,0,0,58.76,0Z"/><path class="b" d="M37.5.151V20.464H57.813Z" transform="translate(22.143 0.108)"/><path class="c" d="M21.011,52.193h0a2.752,2.752,0,0,1-1.658-.559,4.108,4.108,0,0,1-1.911-3.843C17.754,45,21.2,42.078,27.7,39.1A115.073,115.073,0,0,0,34.2,20.674c-1.711-3.723-3.374-8.554-2.162-11.388A3.288,3.288,0,0,1,33.978,7.2a8.416,8.416,0,0,1,1.742-.295c.864,0,1.623,1.113,2.162,1.8.506.645,1.653,2.011-.639,11.661A54.778,54.778,0,0,0,45.964,33.33a33.351,33.351,0,0,1,5.757-.614c2.685,0,4.311.626,4.975,1.915.549,1.066.324,2.313-.669,3.7a4.556,4.556,0,0,1-3.806,2.042c-2.085,0-4.512-1.317-7.219-3.917A82.14,82.14,0,0,0,29.869,41.3a48.641,48.641,0,0,1-4.085,7.287C24.026,51.044,22.511,52.193,21.011,52.193Zm4.563-8.787c-3.663,2.059-5.157,3.751-5.265,4.7-.017.158-.063.573.739,1.186C21.3,49.215,22.8,48.534,25.574,43.405ZM48.952,35.79c1.4,1.075,1.738,1.618,2.652,1.618a2.584,2.584,0,0,0,2.074-.756,2.714,2.714,0,0,0,.394-.711c-.211-.111-.49-.338-2.014-.338A25.066,25.066,0,0,0,48.952,35.79ZM36.146,24.507a122.215,122.215,0,0,1-4.584,12.967A85.655,85.655,0,0,1,42.7,34.011,58.68,58.68,0,0,1,36.146,24.507ZM35.106,10a4.111,4.111,0,0,0,.165,5.513C36.9,11.888,35.18,9.977,35.106,10Z" transform="translate(7.799 4.934)"/><path class="c" d="M77.706,68.143H9.008A2.508,2.508,0,0,1,6.5,65.635V39H80.214V65.635A2.508,2.508,0,0,1,77.706,68.143Z" transform="translate(0 27.857)"/><g transform="translate(22.347 73.584)"><path class="d" d="M18.557,60.2H15.744V42.924h4.968a6.973,6.973,0,0,1,2.179.351,5.925,5.925,0,0,1,1.934,1.054,5.505,5.505,0,0,1,1.383,1.7,4.707,4.707,0,0,1,.528,2.239,6.124,6.124,0,0,1-.446,2.379,4.973,4.973,0,0,1-1.243,1.793,5.6,5.6,0,0,1-1.922,1.125,7.4,7.4,0,0,1-2.484.4H18.555V60.2Zm0-15.141V51.9h2.578a3.063,3.063,0,0,0,1.02-.177,2.569,2.569,0,0,0,.926-.574,2.807,2.807,0,0,0,.679-1.113,5.27,5.27,0,0,0,.257-1.769A4.786,4.786,0,0,0,23.9,47.3a2.807,2.807,0,0,0-.48-1.054A2.841,2.841,0,0,0,22.4,45.4a3.789,3.789,0,0,0-1.735-.339H18.557Z" transform="translate(-15.744 -42.924)"/><path class="d" d="M38.03,51.081a12.69,12.69,0,0,1-.458,3.645,9.06,9.06,0,0,1-1.161,2.532,5.961,5.961,0,0,1-1.582,1.606,7.936,7.936,0,0,1-1.7.879,7.02,7.02,0,0,1-1.5.375,9.99,9.99,0,0,1-1.008.079H24.084V42.924h5.2a9.885,9.885,0,0,1,3.831.691,7.955,7.955,0,0,1,2.743,1.839,7.55,7.55,0,0,1,1.629,2.613A8.652,8.652,0,0,1,38.03,51.081Zm-8.343,7.054a4.656,4.656,0,0,0,4.125-1.827,9.278,9.278,0,0,0,1.265-5.3,8.972,8.972,0,0,0-.257-2.133,4.562,4.562,0,0,0-1-1.91,5.257,5.257,0,0,0-2-1.383,8.629,8.629,0,0,0-3.281-.528H26.9V58.135h2.789Z" transform="translate(-9.787 -42.924)"/><path class="d" d="M37.457,45.057v5.438h7.219v1.922H37.457V60.2H34.6V42.924H45.4v2.133Z" transform="translate(-2.277 -42.924)"/></g></g></svg>